<svg width="40" height="40" viewBox="0 0 40 40" fill="none" xmlns="http://www.w3.org/2000/svg">
<rect width="40" height="40" rx="4" fill="#1D1D1B"/>
<g clip-path="url(#clip0_730_22454)">
<path d="M19.9923 21.9683C21.0798 21.9683 21.9615 21.0871 21.9615 20.0001C21.9615 18.9132 21.0798 18.032 19.9923 18.032C18.9047 18.032 18.023 18.9132 18.023 20.0001C18.023 21.0871 18.9047 21.9683 19.9923 21.9683Z" fill="white"/>
<path d="M19.9923 30.4636C20.7145 30.4636 21.3 29.8784 21.3 29.1566C21.3 28.4348 20.7145 27.8496 19.9923 27.8496C19.27 27.8496 18.6846 28.4348 18.6846 29.1566C18.6846 29.8784 19.27 30.4636 19.9923 30.4636Z" fill="white"/>
<path d="M19.9923 26.3427C20.8972 26.3427 21.6308 25.6096 21.6308 24.7052C21.6308 23.8008 20.8972 23.0676 19.9923 23.0676C19.0874 23.0676 18.3539 23.8008 18.3539 24.7052C18.3539 25.6096 19.0874 26.3427 19.9923 26.3427Z" fill="white"/>
<path d="M19.9924 34.0008C20.3535 34.0008 20.6462 33.7081 20.6462 33.347C20.6462 32.9859 20.3535 32.6931 19.9924 32.6931C19.6313 32.6931 19.3385 32.9859 19.3385 33.347C19.3385 33.7081 19.6313 34.0008 19.9924 34.0008Z" fill="white"/>
<path d="M29.1539 21.3071C29.8761 21.3071 30.4616 20.7219 30.4616 20.0001C30.4616 19.2783 29.8761 18.6931 29.1539 18.6931C28.4317 18.6931 27.8462 19.2783 27.8462 20.0001C27.8462 20.7219 28.4317 21.3071 29.1539 21.3071Z" fill="white"/>
<path d="M24.7 26.0121C25.4222 26.0121 26.0077 25.427 26.0077 24.7052C26.0077 23.9833 25.4222 23.3982 24.7 23.3982C23.9778 23.3982 23.3923 23.9833 23.3923 24.7052C23.3923 25.427 23.9778 26.0121 24.7 26.0121Z" fill="white"/>
<path d="M24.7 21.6377C25.6049 21.6377 26.3385 20.9045 26.3385 20.0001C26.3385 19.0957 25.6049 18.3625 24.7 18.3625C23.7951 18.3625 23.0616 19.0957 23.0616 20.0001C23.0616 20.9045 23.7951 21.6377 24.7 21.6377Z" fill="white"/>
<path d="M29.1539 25.6891C29.6977 25.6891 30.1385 25.2485 30.1385 24.705C30.1385 24.1615 29.6977 23.7209 29.1539 23.7209C28.6101 23.7209 28.1693 24.1615 28.1693 24.705C28.1693 25.2485 28.6101 25.6891 29.1539 25.6891Z" fill="white"/>
<path d="M24.7 30.1405C25.2438 30.1405 25.6846 29.6999 25.6846 29.1564C25.6846 28.6129 25.2438 28.1724 24.7 28.1724C24.1562 28.1724 23.7154 28.6129 23.7154 29.1564C23.7154 29.6999 24.1562 30.1405 24.7 30.1405Z" fill="white"/>
<path d="M33.3462 20.6541C33.7073 20.6541 34 20.3614 34 20.0003C34 19.6392 33.7073 19.3464 33.3462 19.3464C32.9851 19.3464 32.6924 19.6392 32.6924 20.0003C32.6924 20.3614 32.9851 20.6541 33.3462 20.6541Z" fill="white"/>
<path d="M33.3462 25.3592C33.7073 25.3592 34 25.0665 34 24.7054C34 24.3443 33.7073 24.0515 33.3462 24.0515C32.9851 24.0515 32.6924 24.3443 32.6924 24.7054C32.6924 25.0665 32.9851 25.3592 33.3462 25.3592Z" fill="white"/>
<path d="M29.154 29.8106C29.5151 29.8106 29.8078 29.5179 29.8078 29.1568C29.8078 28.7957 29.5151 28.5029 29.154 28.5029C28.7929 28.5029 28.5001 28.7957 28.5001 29.1568C28.5001 29.5179 28.7929 29.8106 29.154 29.8106Z" fill="white"/>
<path d="M24.7 34.0008C25.0612 34.0008 25.3539 33.7081 25.3539 33.347C25.3539 32.9859 25.0612 32.6931 24.7 32.6931C24.3389 32.6931 24.0462 32.9859 24.0462 33.347C24.0462 33.7081 24.3389 34.0008 24.7 34.0008Z" fill="white"/>
<path d="M19.9923 12.1503C20.7145 12.1503 21.3 11.5652 21.3 10.8434C21.3 10.1215 20.7145 9.53638 19.9923 9.53638C19.27 9.53638 18.6846 10.1215 18.6846 10.8434C18.6846 11.5652 19.27 12.1503 19.9923 12.1503Z" fill="white"/>
<path d="M24.7 16.602C25.4222 16.602 26.0077 16.0168 26.0077 15.295C26.0077 14.5732 25.4222 13.988 24.7 13.988C23.9778 13.988 23.3923 14.5732 23.3923 15.295C23.3923 16.0168 23.9778 16.602 24.7 16.602Z" fill="white"/>
<path d="M19.9923 16.9326C20.8972 16.9326 21.6308 16.1994 21.6308 15.295C21.6308 14.3906 20.8972 13.6575 19.9923 13.6575C19.0874 13.6575 18.3539 14.3906 18.3539 15.295C18.3539 16.1994 19.0874 16.9326 19.9923 16.9326Z" fill="white"/>
<path d="M24.7 11.8275C25.2438 11.8275 25.6846 11.3869 25.6846 10.8434C25.6846 10.3 25.2438 9.85938 24.7 9.85938C24.1562 9.85938 23.7154 10.3 23.7154 10.8434C23.7154 11.3869 24.1562 11.8275 24.7 11.8275Z" fill="white"/>
<path d="M29.1539 16.2789C29.6977 16.2789 30.1385 15.8384 30.1385 15.2949C30.1385 14.7514 29.6977 14.3108 29.1539 14.3108C28.6101 14.3108 28.1693 14.7514 28.1693 15.2949C28.1693 15.8384 28.6101 16.2789 29.1539 16.2789Z" fill="white"/>
<path d="M19.9924 7.30769C20.3535 7.30769 20.6462 7.01496 20.6462 6.65385C20.6462 6.29274 20.3535 6 19.9924 6C19.6313 6 19.3385 6.29274 19.3385 6.65385C19.3385 7.01496 19.6313 7.30769 19.9924 7.30769Z" fill="white"/>
<path d="M24.7 7.30769C25.0612 7.30769 25.3539 7.01496 25.3539 6.65385C25.3539 6.29274 25.0612 6 24.7 6C24.3389 6 24.0462 6.29274 24.0462 6.65385C24.0462 7.01496 24.3389 7.30769 24.7 7.30769Z" fill="white"/>
<path d="M29.154 11.4976C29.5151 11.4976 29.8078 11.2049 29.8078 10.8438C29.8078 10.4827 29.5151 10.1899 29.154 10.1899C28.7929 10.1899 28.5001 10.4827 28.5001 10.8438C28.5001 11.2049 28.7929 11.4976 29.154 11.4976Z" fill="white"/>
<path d="M33.3462 15.949C33.7073 15.949 34 15.6563 34 15.2952C34 14.9341 33.7073 14.6414 33.3462 14.6414C32.9851 14.6414 32.6924 14.9341 32.6924 15.2952C32.6924 15.6563 32.9851 15.949 33.3462 15.949Z" fill="white"/>
<path d="M10.8461 21.3071C11.5683 21.3071 12.1538 20.7219 12.1538 20.0001C12.1538 19.2783 11.5683 18.6931 10.8461 18.6931C10.1239 18.6931 9.53839 19.2783 9.53839 20.0001C9.53839 20.7219 10.1239 21.3071 10.8461 21.3071Z" fill="white"/>
<path d="M15.3 16.602C16.0222 16.602 16.6077 16.0168 16.6077 15.295C16.6077 14.5732 16.0222 13.988 15.3 13.988C14.5778 13.988 13.9923 14.5732 13.9923 15.295C13.9923 16.0168 14.5778 16.602 15.3 16.602Z" fill="white"/>
<path d="M15.2999 21.6377C16.2048 21.6377 16.9384 20.9045 16.9384 20.0001C16.9384 19.0957 16.2048 18.3625 15.2999 18.3625C14.395 18.3625 13.6615 19.0957 13.6615 20.0001C13.6615 20.9045 14.395 21.6377 15.2999 21.6377Z" fill="white"/>
<path d="M10.8461 16.2789C11.3899 16.2789 11.8307 15.8384 11.8307 15.2949C11.8307 14.7514 11.3899 14.3108 10.8461 14.3108C10.3023 14.3108 9.86151 14.7514 9.86151 15.2949C9.86151 15.8384 10.3023 16.2789 10.8461 16.2789Z" fill="white"/>
<path d="M15.3 11.8275C15.8438 11.8275 16.2847 11.3869 16.2847 10.8434C16.2847 10.3 15.8438 9.85938 15.3 9.85938C14.7563 9.85938 14.3154 10.3 14.3154 10.8434C14.3154 11.3869 14.7563 11.8275 15.3 11.8275Z" fill="white"/>
<path d="M6.65385 20.6541C7.01496 20.6541 7.30769 20.3614 7.30769 20.0003C7.30769 19.6392 7.01496 19.3464 6.65385 19.3464C6.29274 19.3464 6 19.6392 6 20.0003C6 20.3614 6.29274 20.6541 6.65385 20.6541Z" fill="white"/>
<path d="M6.65385 15.949C7.01496 15.949 7.30769 15.6563 7.30769 15.2952C7.30769 14.9341 7.01496 14.6414 6.65385 14.6414C6.29274 14.6414 6 14.9341 6 15.2952C6 15.6563 6.29274 15.949 6.65385 15.949Z" fill="white"/>
<path d="M10.8461 11.4976C11.2072 11.4976 11.4999 11.2049 11.4999 10.8438C11.4999 10.4827 11.2072 10.1899 10.8461 10.1899C10.485 10.1899 10.1922 10.4827 10.1922 10.8438C10.1922 11.2049 10.485 11.4976 10.8461 11.4976Z" fill="white"/>
<path d="M15.3 7.30769C15.6611 7.30769 15.9538 7.01496 15.9538 6.65385C15.9538 6.29274 15.6611 6 15.3 6C14.9389 6 14.6461 6.29274 14.6461 6.65385C14.6461 7.01496 14.9389 7.30769 15.3 7.30769Z" fill="white"/>
<path d="M15.3 26.0121C16.0222 26.0121 16.6077 25.427 16.6077 24.7052C16.6077 23.9833 16.0222 23.3982 15.3 23.3982C14.5778 23.3982 13.9923 23.9833 13.9923 24.7052C13.9923 25.427 14.5778 26.0121 15.3 26.0121Z" fill="white"/>
<path d="M15.3 30.1405C15.8438 30.1405 16.2847 29.6999 16.2847 29.1564C16.2847 28.6129 15.8438 28.1724 15.3 28.1724C14.7563 28.1724 14.3154 28.6129 14.3154 29.1564C14.3154 29.6999 14.7563 30.1405 15.3 30.1405Z" fill="white"/>
<path d="M10.8461 25.6891C11.3899 25.6891 11.8307 25.2485 11.8307 24.705C11.8307 24.1615 11.3899 23.7209 10.8461 23.7209C10.3023 23.7209 9.86151 24.1615 9.86151 24.705C9.86151 25.2485 10.3023 25.6891 10.8461 25.6891Z" fill="white"/>
<path d="M15.3 34.0008C15.6611 34.0008 15.9538 33.7081 15.9538 33.347C15.9538 32.9859 15.6611 32.6931 15.3 32.6931C14.9389 32.6931 14.6461 32.9859 14.6461 33.347C14.6461 33.7081 14.9389 34.0008 15.3 34.0008Z" fill="white"/>
<path d="M10.8461 29.8106C11.2072 29.8106 11.4999 29.5179 11.4999 29.1568C11.4999 28.7957 11.2072 28.5029 10.8461 28.5029C10.485 28.5029 10.1922 28.7957 10.1922 29.1568C10.1922 29.5179 10.485 29.8106 10.8461 29.8106Z" fill="white"/>
<path d="M6.65385 25.3592C7.01496 25.3592 7.30769 25.0665 7.30769 24.7054C7.30769 24.3443 7.01496 24.0515 6.65385 24.0515C6.29274 24.0515 6 24.3443 6 24.7054C6 25.0665 6.29274 25.3592 6.65385 25.3592Z" fill="white"/>
</g>
<defs>
<clipPath id="clip0_730_22454">
<rect width="28" height="28" fill="white" transform="translate(6 6)"/>
</clipPath>
</defs>
</svg>
